<?xml version="1.0" encoding="utf-8"?>
<!-- Generator: Adobe Illustrator 19.0.0, SVG Export Plug-In . SVG Version: 6.00 Build 0)  -->
<svg version="1.1" id="Layer_1" xmlns="http://www.w3.org/2000/svg" xmlns:xlink="http://www.w3.org/1999/xlink" x="0px" y="0px"
	 viewBox="0 0 500 500" style="enable-background:new 0 0 500 500;" xml:space="preserve">
<style type="text/css">
	.st0{fill:#7BB51C;}
</style>
<g id="XMLID_1_">
	<polygon id="XMLID_3_" class="st0" points="105.3,359.6 393,359.6 249.9,216.5 	"/>
	<polygon id="XMLID_4_" points="99.8,352.6 122.2,330.7 114.7,323.1 100.6,336.8 75.8,311.4 67.5,319.5 	"/>
	<polygon id="XMLID_5_" points="127.1,325.8 150.1,303.3 143.8,296.9 129.2,311.1 122.2,303.9 133.9,292.5 127.3,285.8 115.6,297.2 
		109.6,291 123.7,277.2 117.4,270.8 94.5,293.1 	"/>
	<path id="XMLID_8_" d="M202.3,219.5c-9.3-9.5-25.3-8.4-33.1-0.8c-7.7,7.6-11.7,22.6-0.8,33.8c12,12.3,26.3,7.8,34,0.3
		C213.9,241.7,209.8,227.2,202.3,219.5z M195.5,246.3c-5.1,5-11.4,3.6-18.5-3.7c-6-6.2-5.7-12.4-1.3-16.6c3-2.9,9.1-5.6,16.4,1.9
		C200.3,236.4,200.6,241.3,195.5,246.3z"/>
	<polygon id="XMLID_9_" points="228.1,227.4 236.6,219.1 223.8,206.1 216.2,174.3 206.5,183.8 211.5,201.8 194.5,195.5 185.3,204.4 
		214.4,213.8 	"/>
	<path id="XMLID_12_" d="M182.9,271.5c0,0-20.6-7-21.6-6.9c-0.3,0.1,4.4-12.6-6.2-18.2c0,0-7.9-4.3-15.8,2.9L122.4,266l32.5,32.8
		l8.6-8.4l-17.6-18l28.5,7.5L182.9,271.5z M151,267c-4.8,4.7-5.4,5-5.4,5s-7.5-7.7-7.8-8c-0.3-0.3,5.4-5.1,6.3-6
		c0.4-0.4,3.9-2.7,6.8,0.3C150.8,258.4,155.8,262.3,151,267z"/>
	<polygon id="XMLID_13_" points="225.5,180.6 218,173 250.8,140.4 261.6,151.2 249.7,174.5 273.9,163.6 284.2,174.1 251.4,206.7 
		243.4,198.7 260.8,181.5 237,192.2 232.1,187.3 243.2,163.6 	"/>
	<polygon id="XMLID_14_" points="282.6,238.1 259.8,215.1 292.7,182.5 315.5,205.6 308.9,212.2 294.5,197.7 289.2,203 300.5,214.4 
		293.6,221.3 282.3,210 275.2,217.1 289.3,231.4 	"/>
	<polygon id="XMLID_15_" points="357.7,248.1 366.2,256.7 341.3,281.4 355.2,295.4 347.2,303.3 324.9,280.8 	"/>
	
		<rect id="XMLID_16_" x="350.6" y="291.3" transform="matrix(-0.71 0.7042 -0.7042 -0.71 848.3525 244.9704)" width="46.3" height="11.7"/>
	<polygon id="XMLID_17_" points="376.4,332.8 368.7,325 401.6,292.3 412.8,303.7 403.2,337.5 425,315.9 432.5,323.5 399.6,356.1 
		389.8,346.2 398.3,310.7 	"/>
	<path id="XMLID_20_" d="M342.9,233.2l-20-20.1L290,245.6l8.5,8.5l18-17.8l-6.5,29.4l8.7,8.7c0,0,6.8-21,7-21.9
		c0,0,7.4,4.1,15.5-2.9C341.2,249.6,349,242,342.9,233.2z M330.7,242.7c0,0-4.2,2.8-7.9-0.9l-5.8-6.1c0,0,7-6.9,7.9-7.8
		c0,0,5.4,5.4,6.1,6.1C331.6,234.7,335.8,237.9,330.7,242.7z"/>
</g>
</svg>
