<?xml version="1.0" encoding="UTF-8" standalone="no"?>
<svg
   xmlns:dc="http://purl.org/dc/elements/1.1/"
   xmlns:cc="http://creativecommons.org/ns#"
   xmlns:rdf="http://www.w3.org/1999/02/22-rdf-syntax-ns#"
   xmlns:svg="http://www.w3.org/2000/svg"
   xmlns="http://www.w3.org/2000/svg"
   xmlns:sodipodi="http://sodipodi.sourceforge.net/DTD/sodipodi-0.dtd"
   xmlns:inkscape="http://www.inkscape.org/namespaces/inkscape"
   inkscape:version="1.0beta1 (32d4812, 2019-09-19)"
   sodipodi:docname="logo.svg"
   xml:space="preserve"
   style="enable-background:new 0 0 500 500;"
   viewBox="0 0 500 500"
   y="0px"
   x="0px"
   id="Layer_1"
   version="1.1"><metadata
   id="metadata853">
  <rdf:RDF>
    <cc:Work
       rdf:about="">
      <dc:format>image/svg+xml</dc:format>
      <dc:type
         rdf:resource="http://purl.org/dc/dcmitype/StillImage" />
    </cc:Work>
  </rdf:RDF>
</metadata>
<defs
   id="defs851" />
<sodipodi:namedview
   inkscape:current-layer="layer2"
   inkscape:window-maximized="0"
   inkscape:window-y="23"
   inkscape:window-x="0"
   inkscape:cy="275.68192"
   inkscape:cx="211.56197"
   inkscape:zoom="1.4361764"
   showgrid="false"
   id="namedview849"
   inkscape:window-height="781"
   inkscape:window-width="1440"
   inkscape:pageshadow="2"
   inkscape:pageopacity="0"
   guidetolerance="10"
   gridtolerance="10"
   objecttolerance="10"
   borderopacity="1"
   inkscape:document-rotation="0"
   bordercolor="#666666"
   pagecolor="#ffffff" />

<style
   id="style833"
   type="text/css">
	.st0{fill:#7BB51C;}
</style>


<g
   style=""
   inkscape:label="Layer 2"
   id="layer2"
   inkscape:groupmode="layer">
  <path
     transform="matrix(3.2583204,0,0,1.9367544,-540.77951,-310.64739)"
     inkscape:transform-center-y="-40.482822"
     inkscape:transform-center-x="-0.067840844"
     d="m 311.95222,352.07542 -72.47047,0.0361 -72.47047,0.0361 36.20401,-62.77929 36.20402,-62.7793 36.26645,62.74324 z"
     inkscape:randomized="0"
     inkscape:rounded="0"
     inkscape:flatsided="false"
     sodipodi:arg2="1.5702988"
     sodipodi:arg1="0.52310127"
     sodipodi:r2="41.840851"
     sodipodi:r1="83.681702"
     sodipodi:cy="310.27063"
     sodipodi:cx="239.46094"
     sodipodi:sides="3"
     id="path895"
     style="fill:#ffffff;stroke-width:0.638713"
     sodipodi:type="star" />
</g>
<g
   inkscape:label="Layer 1"
   id="layer1"
   inkscape:groupmode="layer">
  <g
     transform="matrix(0.84852436,0,0,0.87989092,27.337746,36.092547)"
     id="XMLID_1_">
	<polygon
   points="249.9,216.5 105.3,359.6 393,359.6 "
   class="st0"
   id="XMLID_3_" />

	<polygon
   points="67.5,319.5 99.8,352.6 122.2,330.7 114.7,323.1 100.6,336.8 75.8,311.4 "
   id="XMLID_4_" />

	<polygon
   points="94.5,293.1 127.1,325.8 150.1,303.3 143.8,296.9 129.2,311.1 122.2,303.9 133.9,292.5 127.3,285.8 115.6,297.2 109.6,291 123.7,277.2 117.4,270.8 "
   id="XMLID_5_" />

	<path
   inkscape:connector-curvature="0"
   d="m 202.3,219.5 c -9.3,-9.5 -25.3,-8.4 -33.1,-0.8 -7.7,7.6 -11.7,22.6 -0.8,33.8 12,12.3 26.3,7.8 34,0.3 11.5,-11.1 7.4,-25.6 -0.1,-33.3 z m -6.8,26.8 c -5.1,5 -11.4,3.6 -18.5,-3.7 -6,-6.2 -5.7,-12.4 -1.3,-16.6 3,-2.9 9.1,-5.6 16.4,1.9 8.2,8.5 8.5,13.4 3.4,18.4 z"
   id="XMLID_8_" />

	<polygon
   points="223.8,206.1 216.2,174.3 206.5,183.8 211.5,201.8 194.5,195.5 185.3,204.4 214.4,213.8 228.1,227.4 236.6,219.1 "
   id="XMLID_9_" />

	<path
   inkscape:connector-curvature="0"
   d="m 182.9,271.5 c 0,0 -20.6,-7 -21.6,-6.9 -0.3,0.1 4.4,-12.6 -6.2,-18.2 0,0 -7.9,-4.3 -15.8,2.9 l -16.9,16.7 32.5,32.8 8.6,-8.4 -17.6,-18 28.5,7.5 z M 151,267 c -4.8,4.7 -5.4,5 -5.4,5 0,0 -7.5,-7.7 -7.8,-8 -0.3,-0.3 5.4,-5.1 6.3,-6 0.4,-0.4 3.9,-2.7 6.8,0.3 -0.1,0.1 4.9,4 0.1,8.7 z"
   id="XMLID_12_" />

	<polygon
   points="232.1,187.3 243.2,163.6 225.5,180.6 218,173 250.8,140.4 261.6,151.2 249.7,174.5 273.9,163.6 284.2,174.1 251.4,206.7 243.4,198.7 260.8,181.5 237,192.2 "
   id="XMLID_13_" />

	<polygon
   points="289.3,231.4 282.6,238.1 259.8,215.1 292.7,182.5 315.5,205.6 308.9,212.2 294.5,197.7 289.2,203 300.5,214.4 293.6,221.3 282.3,210 275.2,217.1 "
   id="XMLID_14_" />

	<polygon
   points="324.9,280.8 357.7,248.1 366.2,256.7 341.3,281.4 355.2,295.4 347.2,303.3 "
   id="XMLID_15_" />

	
		<rect
   height="11.7"
   width="46.299999"
   transform="matrix(-0.71,0.7042,-0.7042,-0.71,848.3525,244.9704)"
   y="291.29999"
   x="350.60001"
   id="XMLID_16_" />

	<polygon
   points="368.7,325 401.6,292.3 412.8,303.7 403.2,337.5 425,315.9 432.5,323.5 399.6,356.1 389.8,346.2 398.3,310.7 376.4,332.8 "
   id="XMLID_17_" />

	<path
   inkscape:connector-curvature="0"
   d="m 342.9,233.2 -20,-20.1 -32.9,32.5 8.5,8.5 18,-17.8 -6.5,29.4 8.7,8.7 c 0,0 6.8,-21 7,-21.9 0,0 7.4,4.1 15.5,-2.9 0,0 7.8,-7.6 1.7,-16.4 z m -12.2,9.5 c 0,0 -4.2,2.8 -7.9,-0.9 l -5.8,-6.1 c 0,0 7,-6.9 7.9,-7.8 0,0 5.4,5.4 6.1,6.1 0.6,0.7 4.8,3.9 -0.3,8.7 z"
   id="XMLID_20_" />

</g>
</g>
</svg>
