<svg xmlns="http://www.w3.org/2000/svg" viewBox="0 0 500 500" xmlns:v="https://vecta.io/nano"><path d="M475.647 371.26l-472.258.14 235.927-243.185 118.166 121.52z" fill="#fff"/><path d="M239.383 226.59L116.687 352.5h244.12z" fill="#7bb51c"/><path d="M84.613 317.218l27.407 29.124 19.007-19.27-6.364-6.687L112.7 332.44 91.657 310.1zm22.9-23.228l27.662 28.772 19.516-19.798-5.346-5.63-12.388 12.494-5.94-6.335 9.928-10.03-5.6-5.895-9.928 10.03-5.1-5.455L132.3 280l-5.346-5.63zm91.47-64.76c-7.9-8.36-21.468-7.4-28.086-.704-6.534 6.687-9.928 19.886-.68 29.74 10.182 10.823 22.316 6.863 28.85.264 9.758-9.767 6.28-22.525-.085-29.3zm-5.77 23.58c-4.327 4.4-9.673 3.168-15.698-3.256-5.1-5.455-4.837-10.9-1.103-14.606 2.546-2.552 7.722-4.927 13.916 1.672 6.958 7.48 7.212 11.8 2.885 16.2zm24.013-35.372l-6.45-27.98-8.23 8.36 4.243 15.838-14.425-5.543-7.806 7.83 24.692 8.27 11.625 11.967 7.212-7.303zm-34.705 57.545s-17.48-6.16-18.328-6.07c-.255.088 3.733-11.087-5.26-16.014 0 0-6.703-3.784-13.407 2.552l-14.34 14.694 27.577 28.86 7.297-7.4-14.934-15.838 24.183 6.6zm-27.068-3.96c-4.073 4.135-4.582 4.4-4.582 4.4l-6.618-7.04c-.255-.264 4.582-4.487 5.346-5.28.34-.352 3.3-2.376 5.77.264-.085.088 4.158 3.52.085 7.655zm68.816-70.127l9.42-20.853L218.68 195l-6.364-6.687 27.83-28.684 9.164 9.503-10.097 20.5 20.534-9.6 8.74 9.24-27.83 28.684-6.788-7.04 14.764-15.134-20.195 9.415zm48.535 38.804l-5.685 5.895-19.346-20.237 27.916-28.684L295.046 217l-5.6 5.807-12.22-12.758-4.497 4.663 9.588 10.03-5.855 6.07-9.588-9.943-6.024 6.247zm30.207 43.466l27.83-28.772 7.212 7.567-21.128 21.733 11.794 12.318-6.788 6.95zm58.878 3.73l-27.893 28.688-7-7.3 27.893-28.688zm-21.713 35.16l27.916-28.772 9.503 10.03-8.146 29.74 18.498-19.006 6.364 6.687-27.916 28.684-8.315-8.7 7.212-31.236-18.583 19.446zm-21.89-80.774l-16.97-17.686-27.916 28.596 7.212 7.48 15.273-15.662-5.515 25.87 7.382 7.655 5.94-19.27s6.28 3.608 13.152-2.552c0 0 6.618-6.687 1.442-14.43zm-10.352 8.36s-3.564 2.464-6.703-.792l-4.92-5.367 6.703-6.863 5.176 5.367c.5.616 4.073 3.432-.255 7.655z"/></svg>